<svg width="57" height="57" viewBox="0 0 57 57" fill="none" xmlns="http://www.w3.org/2000/svg">
<g filter="url(#filter0_d_466_233376)">
<circle cx="28.5" cy="26.5" r="20.5" fill="white"/>
</g>
<path d="M23.1081 19.5733H23.0891C22.9817 19.8798 22.6025 20.1238 22.1917 20.3553C22.1475 20.3803 22.1096 20.399 22.0843 20.4178C21.7114 20.643 21.3259 20.8307 20.9468 21.0183L20.7951 21.0934C20.2263 21.3749 19.3605 21.7502 18.4315 21.7753C17.4773 21.8003 16.6621 21.4437 16.207 20.8057C15.7015 20.105 15.7394 19.198 16.2892 18.5975C17.2814 17.5215 19.2215 17.7217 20.2137 18.0094C20.8267 18.1846 21.3196 18.366 21.7746 18.5724C21.8062 18.5849 21.8441 18.6037 21.8947 18.6225C22.4382 18.8539 22.9437 19.0854 23.0828 19.4169H23.127C23.127 19.4545 23.127 19.4857 23.1144 19.517C23.1144 19.5295 23.1144 19.5483 23.1207 19.5671L23.1081 19.5733ZM16.6052 19.2293C16.4093 19.5921 16.4409 20.0612 16.7126 20.4428C17.1866 21.1059 18.0524 21.156 18.3999 21.1435C19.2025 21.1247 19.9799 20.7806 20.4917 20.5304L20.6434 20.4553C21.0099 20.2739 21.3828 20.0863 21.7367 19.8798C21.7683 19.8611 21.8125 19.8361 21.8631 19.811C22.0527 19.7047 22.198 19.6109 22.2991 19.542C22.1728 19.467 21.9642 19.3606 21.6229 19.2168C21.5661 19.1917 21.5218 19.173 21.4902 19.1605C21.0668 18.9665 20.5992 18.7976 20.0178 18.6287C18.9182 18.3097 17.4204 18.2972 16.7505 19.0353C16.6937 19.0979 16.6431 19.1605 16.6052 19.2355V19.2293Z" fill="#212121" stroke="#212121" stroke-width="0.8" stroke-miterlimit="10"/>
<path d="M23.2148 19.4683L22.5892 19.3432C22.6018 19.2806 22.5955 19.2181 22.5829 19.1493L22.4881 19.412C22.2732 19.3369 22.0583 19.2619 21.8435 19.1931C20.8955 18.874 19.916 18.5487 19.0628 17.9732C18.2286 17.4102 16.9521 16.0841 17.4829 14.6828C17.7736 13.9197 18.6837 13.5568 19.3978 13.6569C21.2494 13.9072 21.9067 15.7275 22.4312 17.1976C22.526 17.454 22.6145 17.698 22.7029 17.9294C22.7472 18.0295 22.8104 18.1484 22.8799 18.2735C23.0758 18.6301 23.297 19.0304 23.2085 19.4683H23.2148ZM18.3108 14.5828C18.2097 14.6703 18.1339 14.7829 18.0833 14.908C17.6915 15.9402 18.7911 17.0224 19.4231 17.454C20.2067 17.9795 21.142 18.2923 22.0457 18.5988C22.1594 18.6363 22.2795 18.6739 22.3933 18.7176C22.368 18.6739 22.3427 18.6301 22.3238 18.5863C22.2479 18.4487 22.1721 18.311 22.1152 18.1672C22.0204 17.9294 21.9256 17.6792 21.8371 17.4165C21.3442 16.0465 20.7818 14.4952 19.3156 14.295C18.987 14.2512 18.5762 14.3513 18.3108 14.589V14.5828Z" fill="#212121" stroke="#212121" stroke-width="0.8" stroke-miterlimit="10" stroke-linejoin="bevel"/>
<path d="M23.2657 19.8991H22.6274C22.6274 19.6489 22.659 19.4112 22.7096 19.1798L22.6148 19.1985C22.5137 18.7356 22.2925 18.1976 22.0586 17.6221C21.4014 16.0145 20.5799 14.0064 22.185 12.6365C22.6464 12.2424 23.2657 12.0547 23.8787 12.1173C24.4538 12.1798 24.953 12.4488 25.2817 12.8805C26.3813 14.3192 25.3322 15.8456 24.5739 16.9653L24.4601 17.1342C23.9356 17.9036 23.2847 18.867 23.2783 19.8929L23.2657 19.8991ZM22.9118 12.9117C22.798 12.968 22.6969 13.0368 22.5958 13.1182C21.3445 14.1879 22.0081 15.8143 22.6464 17.3844C22.7728 17.6972 22.8992 18.0037 23.0066 18.2977C23.2594 17.741 23.607 17.2343 23.9103 16.7839L24.0304 16.6087C24.7571 15.5453 25.5787 14.338 24.7571 13.262C24.5359 12.968 24.1947 12.7866 23.7965 12.7428C23.4869 12.7116 23.1772 12.7679 22.9055 12.9055L22.9118 12.9117Z" fill="#212121" stroke="#212121" stroke-width="0.8" stroke-miterlimit="10"/>
<path d="M36.9965 27.7461H21.0521V38.5243H36.9965V27.7461Z" stroke="#212121" stroke-width="1.8" stroke-miterlimit="10"/>
<path d="M29.9108 13.7915L17.4075 26.168L19.548 28.2867L32.0513 15.9103L29.9108 13.7915Z" stroke="#212121" stroke-width="1.8" stroke-miterlimit="10"/>
<path d="M29.0211 27.5391V38.53" stroke="#212121" stroke-width="1.8" stroke-miterlimit="10"/>
<path d="M23.7021 20.1172L25.6649 22.1203" stroke="#212121" stroke-width="1.8" stroke-miterlimit="10"/>
<path d="M30.8431 24.6827C30.8431 24.6827 35.1289 25.6389 35.4461 22.3868C35.7632 19.1347 33.833 18.5016 32.7248 19.3875C30.6578 21.0368 33.3274 22.8925 36.6552 22.139C39.9829 21.3854 40.1147 14.7509 36.9829 16.0491C34.7271 16.9929 38.2629 20.7967 40.8759 18.8312C42.7659 17.4124 42.5831 15.2371 42.5831 15.2371" stroke="#212121" stroke-width="1.5" stroke-miterlimit="10"/>
<defs>
<filter id="filter0_d_466_233376" x="0" y="0" width="57" height="57" filterUnits="userSpaceOnUse" color-interpolation-filters="sRGB">
<feFlood flood-opacity="0" result="BackgroundImageFix"/>
<feColorMatrix in="SourceAlpha" type="matrix" values="0 0 0 0 0 0 0 0 0 0 0 0 0 0 0 0 0 0 127 0" result="hardAlpha"/>
<feOffset dy="2"/>
<feGaussianBlur stdDeviation="4"/>
<feComposite in2="hardAlpha" operator="out"/>
<feColorMatrix type="matrix" values="0 0 0 0 0 0 0 0 0 0 0 0 0 0 0 0 0 0 0.2 0"/>
<feBlend mode="normal" in2="BackgroundImageFix" result="effect1_dropShadow_466_233376"/>
<feBlend mode="normal" in="SourceGraphic" in2="effect1_dropShadow_466_233376" result="shape"/>
</filter>
</defs>
</svg>
