<svg width="67" height="39" viewBox="0 0 67 39" fill="none" xmlns="http://www.w3.org/2000/svg">
<path d="M59.8418 5.11523L60.5303 7.01758L60.707 7.50879L60.209 7.66504C58.7482 8.12272 57.0025 9.11407 56.2148 11.292C56.2991 11.2903 56.3839 11.2881 56.4688 11.2881H56.6035C57.9386 11.2881 59.4676 11.4836 60.8906 11.9619C62.3101 12.439 63.6585 13.2093 64.5869 14.3818L64.7461 14.5928C66.3178 16.8089 65.7096 20.1477 63.4141 21.7578C62.2935 22.5466 60.9373 22.851 59.5332 22.6533V22.6523C57.2674 22.3433 55.419 20.877 54.4297 19.6162C53.344 18.2321 52.7363 16.6157 52.6172 14.7979C49.2529 15.7139 46.9022 17.863 45.6973 21.127C47.3074 21.2272 48.873 21.6035 50.2441 22.3213L50.5537 22.4912C52.4733 23.5958 53.7299 25.6351 53.7217 27.7217C53.7133 29.6451 52.6388 31.3263 50.8428 32.3438C49.2131 33.2655 47.3918 33.2192 45.7354 32.249H45.7344C44.4623 31.5017 43.3943 30.2626 42.6807 28.8799C41.968 27.499 41.5846 25.9282 41.7344 24.4932V24.4902C39.6145 24.9809 37.6588 25.9251 36.4316 27.0684C34.4304 28.9327 33.1246 32.3654 33.0293 36.29V36.7969L32.5186 36.7852L30.3633 36.7363L29.8623 36.7246L29.875 36.2236C29.9895 31.6242 31.5832 27.3882 34.2227 24.9219H34.2236C36.1842 23.0954 39.2256 21.7605 42.3564 21.292C43.8609 16.1576 47.5832 12.7517 52.8535 11.6631C53.5248 8.31072 55.8072 5.87766 59.2217 4.80762L59.6787 4.66504L59.8418 5.11523ZM44.959 24.1338C44.9276 24.3527 44.899 24.5743 44.877 24.7998V24.8027C44.7931 25.5994 45.0361 26.6037 45.5176 27.542C45.9979 28.4779 46.6782 29.2763 47.3916 29.6992L47.6484 29.832C47.8994 29.9453 48.1311 29.9995 48.3477 30.0068C48.6326 30.0163 48.9239 29.9454 49.2354 29.7725L49.4365 29.6514C50.3874 29.0338 50.5674 28.2663 50.5674 27.7266C50.5673 26.7192 49.9399 25.663 48.9258 25.0801L48.9248 25.0791C47.8312 24.4467 46.439 24.1537 44.959 24.1338ZM56.4912 14.2949C56.2443 14.2949 55.9969 14.3047 55.7539 14.3184C55.7803 15.6048 56.1317 16.6878 56.8027 17.6152L56.958 17.8193L56.959 17.8213C57.7296 18.8019 58.9661 19.5435 59.9854 19.6836H59.9844C60.5916 19.7661 61.105 19.6473 61.5439 19.3379C62.0014 19.0149 62.3196 18.4521 62.4229 17.832C62.5263 17.2105 62.4024 16.6087 62.0791 16.2061L62.0771 16.2041C61.5769 15.5748 60.7234 15.0862 59.6904 14.7588C58.6661 14.4341 57.5188 14.2849 56.4961 14.2949H56.4912Z" fill="#587DBD" stroke="#587DBD"/>
<path d="M40.793 1.06445C41.4906 2.48243 41.7989 4.08812 41.7197 5.84082L41.6992 6.19336C41.5912 7.68107 40.9341 9.23028 39.9512 10.5566C40.3493 12.7869 39.9004 15.1793 39.1631 17.0146C38.327 19.0968 37.3395 21.1988 35 22.7012C35.0018 22.7113 35.0041 22.7213 35.0059 22.7314L35.0635 23.1074V23.1094C35.3823 25.7147 34.6129 28.6849 33.9795 31.1865L33.9805 31.1875C33.7852 31.9637 33.5945 32.6924 33.4482 33.3877L33.3652 33.7852H32.9062L32.8623 33.7773L30.7549 33.3926L30.2471 33.2998L30.3564 32.7949C30.5149 32.0636 30.7103 31.2855 30.9111 30.4961L31.1406 29.5859C31.62 27.6559 32.0484 25.6713 31.9678 23.9863C30.8272 24.2576 29.6236 24.3462 28.5693 24.209H28.5664C27.319 24.0388 26.0158 23.5812 25.0234 22.835C24.024 22.0834 23.3053 21.0062 23.3623 19.6318C23.4063 18.5676 23.9446 17.6049 24.8359 16.9141C25.9044 16.0812 27.4288 15.6716 28.8105 15.8301H28.8096C31.2378 16.1044 32.9587 17.7361 33.9727 19.6641C34.9187 18.8056 35.5408 17.6444 36.2168 15.9551C36.5494 15.1218 36.7899 14.2048 36.8955 13.292C35.8583 13.8753 34.5562 14.0926 33.3086 14.0693C32.0577 14.0459 30.8067 13.7809 29.8496 13.3467L29.8486 13.3457C27.5493 12.296 26.4804 9.61562 27.5088 7.35156L27.5098 7.34961C28.4629 5.2809 30.7357 4.40635 33.6641 4.65527H33.6631C35.194 4.78112 36.6615 5.41721 37.7871 6.45605C37.9882 6.64164 38.1754 6.83644 38.3496 7.03906C38.4678 6.6798 38.5416 6.32682 38.5645 5.99219L38.5654 5.98926C38.6717 4.57707 38.457 3.35078 37.9463 2.32617L37.708 1.84766L38.2002 1.6416L40.1504 0.824219L40.585 0.641602L40.793 1.06445ZM28.2021 18.7715C27.6975 18.7715 27.169 18.9477 26.835 19.208C26.5903 19.3987 26.5133 19.5745 26.5059 19.749V19.75C26.4929 20.0419 26.7111 20.3694 27.2646 20.6846C27.7919 20.9846 28.4744 21.1805 29.0068 21.2529H29.0059C29.628 21.3371 30.4191 21.2717 31.1865 21.0908C30.5737 19.8876 29.6455 18.9218 28.4277 18.7812L28.415 18.7803C28.3585 18.7722 28.3032 18.7715 28.2021 18.7715ZM32.6689 7.5918C31.3001 7.5918 30.6463 7.98207 30.3906 8.53711C30.0403 9.30998 30.4048 10.2873 31.21 10.6562H31.209C31.8086 10.9299 32.6057 11.0829 33.3857 11.0918C34.1748 11.1007 34.869 10.9612 35.2891 10.7236H35.29C35.7071 10.4895 36.1075 10.1918 36.4766 9.84766C36.261 9.3684 35.9692 8.94311 35.585 8.58789L35.3477 8.3877C34.7767 7.94642 34.0884 7.67532 33.373 7.61719V7.61621C33.214 7.60399 33.0663 7.59733 32.9258 7.5918H32.6689Z" fill="#587DBD" stroke="#587DBD"/>
<path d="M1.03125 7.88965C4.07707 7.7223 6.67966 7.67591 8.84961 8.37793C11.0211 9.08053 12.7172 10.5171 14.042 13.1709C16.3672 14.2508 18.2568 16.3949 19.3037 18.3799L19.5068 18.7842V18.7852C19.8243 19.4571 20.3505 20.7026 20.6914 22.1787C21.4063 22.3548 22.1274 22.6073 22.8398 22.9307H22.8389C25.5483 24.152 28.0092 26.3168 29.834 28.8516C31.6576 31.3847 32.8733 34.325 33.0459 37.1211L33.0762 37.623L32.5742 37.6514L30.458 37.7705L30.4365 37.3936L29.9951 37.5176L29.9873 37.5039L29.626 36.8154L29.8906 36.7998C29.6468 34.7197 28.7042 32.5158 27.2969 30.5635C25.7735 28.4503 23.7344 26.6695 21.5312 25.6758L21.5293 25.6748C21.3658 25.6001 21.1938 25.5285 21.0146 25.46C20.905 27.324 20.2203 29.2281 18.3594 30.6299L18.1514 30.7803C16.0967 32.2173 14.3349 31.8461 13.4385 31.4678V31.4688C11.9516 30.8438 10.9207 29.4399 10.7393 27.8164L10.7148 27.499C10.6528 26.0272 11.3251 24.6796 12.543 23.7314L12.8125 23.5342C14.2096 22.5692 15.7617 22.0237 17.4043 21.8994C17.1548 21.1104 16.8666 20.4506 16.6777 20.0527V20.0518C16.2472 19.1492 15.5453 18.1621 14.6973 17.3359C14.5433 18.4348 14.1707 19.5174 13.583 20.3428L13.584 20.3438C12.3983 22.0198 10.5503 22.9895 8.57227 22.959L8.1748 22.9395C6.32177 22.7872 4.69239 21.7711 3.96484 20.2197C3.72964 19.7235 3.49859 18.9688 3.5791 18.0186C3.65997 17.0647 4.05208 15.9503 5.00879 14.7354C6.11889 13.3257 7.87836 12.5316 9.83008 12.4062C9.16311 11.7476 8.37324 11.3388 7.33105 11.0986C5.8859 10.7656 3.96137 10.7562 1.20996 10.9033L0.714844 10.9297L0.68457 10.4355L0.55957 8.41992L0.52832 7.91699L1.03125 7.88965ZM17.9219 24.8867C16.85 24.9217 15.7272 25.2208 14.6221 25.9873L14.6201 25.9893C13.9343 26.4609 13.8251 27.0091 13.833 27.3525L13.8418 27.4863V27.4873C13.9047 28.0481 14.2522 28.5166 14.6826 28.6982L14.8428 28.751C15.2305 28.8464 15.7222 28.7468 16.3203 28.3311C17.5073 27.4954 17.9195 26.2423 17.9219 24.8867ZM10.1729 15.4141C9.11083 15.4504 8.11526 15.7882 7.5 16.5713L7.49805 16.5723C6.73437 17.5358 6.57407 18.3289 6.7666 18.8701L6.80957 18.9746V18.9756C7.03772 19.4645 7.63613 19.8681 8.44824 19.9346L8.63281 19.9434C9.55193 19.9574 10.4154 19.5038 11.0264 18.6396C11.2911 18.2605 11.4997 17.6766 11.6035 17.0303C11.6872 16.5094 11.6949 15.9867 11.6309 15.5479C11.2428 15.4667 10.8146 15.418 10.376 15.418H10.1768L10.1729 15.4141Z" fill="#587DBD" stroke="#587DBD"/>
</svg>
