<svg width="68" height="37" viewBox="0 0 68 37" fill="none" xmlns="http://www.w3.org/2000/svg">
<path d="M2.37305 5.09473C4.41887 2.02056 7.75832 0.318996 11.6621 0.515625L11.6611 0.516602C18.8021 0.847494 24.4685 6.41039 29.04 17.085L29.4785 18.1338L29.9561 19.3135C31.0616 22.0715 32.1053 24.8649 33.0615 27.6328L33.2129 28.0303C33.3807 28.4384 33.5941 28.8798 33.8223 29.3535C34.4262 30.608 35.1084 32.0186 35.2236 33.4043L35.2627 33.8779L34.792 33.9414L32.3906 34.2676L32.6396 35.333L31.4404 34.2168L31.4365 34.2139L30.6641 33.4951L31.127 33.4316C30.604 32.0838 29.3642 31.0772 27.6621 30.2646C25.747 29.3505 23.3687 28.7369 21.0801 28.1484C19.4998 27.7418 17.9714 27.3478 16.6865 26.8633V26.8623C11.5678 24.9375 5.55662 22.6948 2.17578 17.2598C-0.0610399 13.6636 -0.056453 9.00774 2.17871 5.39648L2.37305 5.09473ZM11.0996 4.28125C8.15747 4.28125 6.53664 5.94283 5.76172 7.09277L5.61816 7.31543C4.14893 9.68165 4.10027 12.7155 5.47266 15.1094L5.61035 15.3398L5.86621 15.7334C8.57718 19.731 13.3453 21.5404 18.1621 23.3545L18.5752 23.5029C19.5735 23.8446 20.8023 24.1603 22.126 24.502L23.9521 24.9785C25.4409 25.3802 26.9843 25.8438 28.4336 26.4385C27.8369 24.7917 27.2155 23.1412 26.5684 21.501L25.7666 19.502C21.6109 9.3387 16.8991 4.54199 11.4678 4.28809V4.28711L11.2061 4.28125H11.0996Z" fill="#E0B000" stroke="#E0B000"/>
<path d="M55.9775 0.505859C59.8266 0.440332 63.1265 2.23591 65.0889 5.40625C67.3242 9.01782 67.3255 13.6669 65.0889 17.2627C62.1242 22.0243 57.1535 24.3336 52.5303 26.124L50.5771 26.8652C49.6133 27.2287 48.5127 27.5396 47.3564 27.8438L46.1846 28.1475C43.8957 28.7377 41.5173 29.352 39.6016 30.2666C37.8995 31.0793 36.6574 32.0852 36.1328 33.4326L37.2422 33.585L35.6982 34.3037L35.6904 34.3066L34.7588 34.7412L34.8682 34.2705L32.4717 33.9443L32.002 33.8799L32.041 33.4072C32.1562 32.0178 32.841 30.606 33.4443 29.3496C33.7458 28.7193 34.0234 28.1506 34.2021 27.6357L34.6221 26.4385C35.6122 23.6444 36.675 20.8567 37.7852 18.1367V18.1357C42.4317 6.77671 48.232 0.858775 55.6035 0.517578L55.9775 0.505859ZM55.79 4.29102L55.7891 4.29004C50.3662 4.54639 45.658 9.34763 41.5049 19.5049C40.5748 21.7784 39.6821 24.1038 38.8369 26.4375C40.8916 25.5943 43.1359 25.0157 45.1445 24.501C46.6574 24.1105 48.0468 23.7537 49.1094 23.3535C54.0773 21.4845 58.9943 19.6169 61.6572 15.3389V15.3379C63.1686 12.9141 63.1698 9.76069 61.6533 7.31836L61.6523 7.31641C60.949 6.17269 59.3097 4.28319 56.1719 4.28027L55.79 4.29102Z" fill="#E0B000" stroke="#E0B000"/>
</svg>
