<svg width="73" height="34" viewBox="0 0 73 34" fill="none" xmlns="http://www.w3.org/2000/svg">
<g clip-path="url(#clip0_5731_49439)">
<mask id="path-1-outside-1_5731_49439" maskUnits="userSpaceOnUse" x="-2" y="-3.17188" width="77" height="39" fill="black">
<rect fill="white" x="-2" y="-3.17188" width="77" height="39"/>
<path d="M35.0978 34.0005L39.7461 32.3706L44.6865 30.9374L72.7482 22.8122L71.8675 20.2711L42.5812 28.7545L65.395 12.5318L63.6034 10.4261L41.1516 26.3952L56.9439 6.45167L54.5793 4.88617L42.4968 20.1443L49.657 8.47469L47.1114 7.17378L39.6134 19.3891L44.0772 -0.642692L41.218 -1.17188L35.4512 24.7085L31.4639 1.13779L28.5805 1.5457L32.2541 23.2642L20.2742 2.86866L17.7045 4.13098L28.5866 22.6524L12.8365 4.57196L10.5503 6.23668L28.6167 26.974L9.90486 13.1822L8.07107 15.2604L24.1288 27.0898L1.01341 19.2733L0 21.7759L27.1087 30.9374L30.7642 32.1722L31.2528 32.3375L31.5966 32.4533L35.736 33.7768"/>
</mask>
<path d="M35.0978 34.0005L39.7461 32.3706L44.6865 30.9374L72.7482 22.8122L71.8675 20.2711L42.5812 28.7545L65.395 12.5318L63.6034 10.4261L41.1516 26.3952L56.9439 6.45167L54.5793 4.88617L42.4968 20.1443L49.657 8.47469L47.1114 7.17378L39.6134 19.3891L44.0772 -0.642692L41.218 -1.17188L35.4512 24.7085L31.4639 1.13779L28.5805 1.5457L32.2541 23.2642L20.2742 2.86866L17.7045 4.13098L28.5866 22.6524L12.8365 4.57196L10.5503 6.23668L28.6167 26.974L9.90486 13.1822L8.07107 15.2604L24.1288 27.0898L1.01341 19.2733L0 21.7759L27.1087 30.9374L30.7642 32.1722L31.2528 32.3375L31.5966 32.4533L35.736 33.7768" fill="#922B74"/>
<path d="M39.7461 32.3706L39.4675 31.4102L39.4411 31.4178L39.4152 31.4269L39.7461 32.3706ZM44.6865 30.9374L44.4084 29.9769L44.4079 29.977L44.6865 30.9374ZM72.7482 22.8122L73.0264 23.7728L74.038 23.4799L73.6931 22.4848L72.7482 22.8122ZM71.8675 20.2711L72.8124 19.9436L72.5014 19.0463L71.5893 19.3105L71.8675 20.2711ZM42.5812 28.7545L42.0017 27.9396L42.8595 29.715L42.5812 28.7545ZM65.395 12.5318L65.9745 13.3467L66.8635 12.7146L66.1566 11.8837L65.395 12.5318ZM63.6034 10.4261L64.3651 9.77804L63.771 9.07975L63.0238 9.61115L63.6034 10.4261ZM41.1516 26.3952L40.3676 25.7745L41.7312 27.2101L41.1516 26.3952ZM56.9439 6.45167L57.7279 7.07246L58.4038 6.21888L57.4959 5.61784L56.9439 6.45167ZM54.5793 4.88617L55.1313 4.05234L54.3655 3.54533L53.7953 4.26536L54.5793 4.88617ZM42.4968 20.1443L41.6445 19.6213L43.2808 20.7651L42.4968 20.1443ZM49.657 8.47469L50.5094 8.99767L51.0748 8.0762L50.1121 7.58423L49.657 8.47469ZM47.1114 7.17378L47.5665 6.28332L46.743 5.86247L46.2592 6.65065L47.1114 7.17378ZM39.6134 19.3891L38.6374 19.1716L40.4657 19.9122L39.6134 19.3891ZM44.0772 -0.642692L45.0533 -0.42519L45.2788 -1.43729L44.2592 -1.62599L44.0772 -0.642692ZM41.218 -1.17188L41.4 -2.15518L40.4517 -2.33068L40.2419 -1.38937L41.218 -1.17188ZM35.4512 24.7085L34.4652 24.8753L36.4273 24.926L35.4512 24.7085ZM31.4639 1.13779L32.4499 0.970995L32.2876 0.0113091L31.3238 0.147647L31.4639 1.13779ZM28.5805 1.5457L28.4405 0.555558L27.4232 0.699471L27.5945 1.71248L28.5805 1.5457ZM32.2541 23.2642L31.3919 23.7707L33.2401 23.0975L32.2541 23.2642ZM20.2742 2.86866L21.1365 2.36219L20.6664 1.56187L19.8333 1.9711L20.2742 2.86866ZM17.7045 4.13098L17.2636 3.23342L16.2964 3.70851L16.8423 4.63755L17.7045 4.13098ZM28.5866 22.6524L27.8325 23.3092L29.4488 22.1458L28.5866 22.6524ZM12.8365 4.57196L13.5905 3.91512L12.9886 3.22417L12.2479 3.76357L12.8365 4.57196ZM10.5503 6.23668L9.96166 5.42829L9.07943 6.0707L9.79631 6.89357L10.5503 6.23668ZM28.6167 26.974L28.0234 27.779L29.3707 26.3172L28.6167 26.974ZM9.90486 13.1822L10.4982 12.3772L9.76098 11.8339L9.15505 12.5206L9.90486 13.1822ZM8.07107 15.2604L7.32126 14.5987L6.5986 15.4177L7.47796 16.0655L8.07107 15.2604ZM24.1288 27.0898L23.8084 28.0371L24.7219 26.2847L24.1288 27.0898ZM1.01341 19.2733L1.33374 18.326L0.440454 18.024L0.0865201 18.898L1.01341 19.2733ZM0 21.7759L-0.926888 21.4006L-1.32499 22.3837L-0.320164 22.7233L0 21.7759ZM27.1087 30.9374L26.7885 31.8848L26.7887 31.8848L27.1087 30.9374ZM30.7642 32.1722L31.0848 31.2249L31.0842 31.2247L30.7642 32.1722ZM31.2528 32.3375L30.9322 33.2847L30.9337 33.2853L31.2528 32.3375ZM31.5966 32.4533L31.2776 33.401L31.2848 33.4035L31.2921 33.4058L31.5966 32.4533ZM35.0978 34.0005L35.4287 34.9442L40.077 33.3143L39.7461 32.3706L39.4152 31.4269L34.7669 33.0569L35.0978 34.0005ZM39.7461 32.3706L40.0247 33.331L44.9651 31.8978L44.6865 30.9374L44.4079 29.977L39.4675 31.4102L39.7461 32.3706ZM44.6865 30.9374L44.9646 31.8979L73.0264 23.7728L72.7482 22.8122L72.4701 21.8517L44.4084 29.9769L44.6865 30.9374ZM72.7482 22.8122L73.6931 22.4848L72.8124 19.9436L71.8675 20.2711L70.9227 20.5985L71.8034 23.1397L72.7482 22.8122ZM71.8675 20.2711L71.5893 19.3105L42.303 27.794L42.5812 28.7545L42.8595 29.715L72.1458 21.2316L71.8675 20.2711ZM42.5812 28.7545L43.1608 29.5695L65.9745 13.3467L65.395 12.5318L64.8155 11.7168L42.0017 27.9396L42.5812 28.7545ZM65.395 12.5318L66.1566 11.8837L64.3651 9.77804L63.6034 10.4261L62.8418 11.0741L64.6334 13.1798L65.395 12.5318ZM63.6034 10.4261L63.0238 9.61115L40.572 25.5803L41.1516 26.3952L41.7312 27.2101L64.1831 11.2409L63.6034 10.4261ZM41.1516 26.3952L41.9356 27.016L57.7279 7.07246L56.9439 6.45167L56.1599 5.83087L40.3676 25.7745L41.1516 26.3952ZM56.9439 6.45167L57.4959 5.61784L55.1313 4.05234L54.5793 4.88617L54.0272 5.71999L56.3919 7.28549L56.9439 6.45167ZM54.5793 4.88617L53.7953 4.26536L41.7128 19.5235L42.4968 20.1443L43.2808 20.7651L55.3633 5.50697L54.5793 4.88617ZM42.4968 20.1443L43.3491 20.6673L50.5094 8.99767L49.657 8.47469L48.8047 7.95171L41.6445 19.6213L42.4968 20.1443ZM49.657 8.47469L50.1121 7.58423L47.5665 6.28332L47.1114 7.17378L46.6564 8.06424L49.202 9.36515L49.657 8.47469ZM47.1114 7.17378L46.2592 6.65065L38.7612 18.866L39.6134 19.3891L40.4657 19.9122L47.9637 7.69691L47.1114 7.17378ZM39.6134 19.3891L40.5895 19.6066L45.0533 -0.42519L44.0772 -0.642692L43.1012 -0.860195L38.6374 19.1716L39.6134 19.3891ZM44.0772 -0.642692L44.2592 -1.62599L41.4 -2.15518L41.218 -1.17188L41.036 -0.188574L43.8952 0.340609L44.0772 -0.642692ZM41.218 -1.17188L40.2419 -1.38937L34.4751 24.491L35.4512 24.7085L36.4273 24.926L42.194 -0.954384L41.218 -1.17188ZM35.4512 24.7085L36.4372 24.5417L32.4499 0.970995L31.4639 1.13779L30.4779 1.30458L34.4652 24.8753L35.4512 24.7085ZM31.4639 1.13779L31.3238 0.147647L28.4405 0.555558L28.5805 1.5457L28.7206 2.53584L31.604 2.12793L31.4639 1.13779ZM28.5805 1.5457L27.5945 1.71248L31.2681 23.431L32.2541 23.2642L33.2401 23.0975L29.5665 1.37892L28.5805 1.5457ZM32.2541 23.2642L33.1164 22.7578L21.1365 2.36219L20.2742 2.86866L19.4119 3.37513L31.3919 23.7707L32.2541 23.2642ZM20.2742 2.86866L19.8333 1.9711L17.2636 3.23342L17.7045 4.13098L18.1454 5.02853L20.7151 3.76621L20.2742 2.86866ZM17.7045 4.13098L16.8423 4.63755L27.7244 23.159L28.5866 22.6524L29.4488 22.1458L18.5667 3.6244L17.7045 4.13098ZM28.5866 22.6524L29.3406 21.9955L13.5905 3.91512L12.8365 4.57196L12.0825 5.22881L27.8325 23.3092L28.5866 22.6524ZM12.8365 4.57196L12.2479 3.76357L9.96166 5.42829L10.5503 6.23668L11.1389 7.04508L13.4251 5.38036L12.8365 4.57196ZM10.5503 6.23668L9.79631 6.89357L27.8627 27.6309L28.6167 26.974L29.3707 26.3172L11.3043 5.5798L10.5503 6.23668ZM28.6167 26.974L29.21 26.1691L10.4982 12.3772L9.90486 13.1822L9.31155 13.9872L28.0234 27.779L28.6167 26.974ZM9.90486 13.1822L9.15505 12.5206L7.32126 14.5987L8.07107 15.2604L8.82089 15.922L10.6547 13.8439L9.90486 13.1822ZM8.07107 15.2604L7.47796 16.0655L23.5357 27.8949L24.1288 27.0898L24.7219 26.2847L8.66419 14.4552L8.07107 15.2604ZM24.1288 27.0898L24.4491 26.1425L1.33374 18.326L1.01341 19.2733L0.693077 20.2206L23.8084 28.0371L24.1288 27.0898ZM1.01341 19.2733L0.0865201 18.898L-0.926888 21.4006L0 21.7759L0.926888 22.1513L1.9403 19.6487L1.01341 19.2733ZM0 21.7759L-0.320164 22.7233L26.7885 31.8848L27.1087 30.9374L27.4288 29.99L0.320164 20.8286L0 21.7759ZM27.1087 30.9374L26.7887 31.8848L30.4442 33.1196L30.7642 32.1722L31.0842 31.2247L27.4287 29.99L27.1087 30.9374ZM30.7642 32.1722L30.4436 33.1194L30.9322 33.2847L31.2528 32.3375L31.5734 31.3903L31.0848 31.2249L30.7642 32.1722ZM31.2528 32.3375L30.9337 33.2853L31.2776 33.401L31.5966 32.4533L31.9157 31.5056L31.5719 31.3898L31.2528 32.3375ZM31.5966 32.4533L31.2921 33.4058L35.4314 34.7293L35.736 33.7768L36.0405 32.8243L31.9012 31.5008L31.5966 32.4533Z" fill="#922B74" mask="url(#path-1-outside-1_5731_49439)"/>
</g>
<defs>
<clipPath id="clip0_5731_49439">
<rect width="72.7482" height="34" fill="white"/>
</clipPath>
</defs>
</svg>
